<svg width="512" height="512" viewBox="0 0 72 72" xmlns="http://www.w3.org/2000/svg">
  <!-- background with rounded corners -->
  <rect width="72" height="72" rx="16" fill="#07122A" />

  <!-- left column nodes -->
  <circle cx="18" cy="22" r="4" fill="#0C447C" stroke="#378ADD" strokeWidth="1" />
  <circle cx="18" cy="36" r="4" fill="#0C447C" stroke="#378ADD" strokeWidth="1" />
  <circle cx="18" cy="50" r="4" fill="#0C447C" stroke="#378ADD" strokeWidth="1" />

  <!-- center column nodes -->
  <circle cx="36" cy="16" r="4.5" fill="#0F4A8A" stroke="#85B7EB" strokeWidth="1" />
  <circle cx="36" cy="36" r="4.5" fill="#0F4A8A" stroke="#85B7EB" strokeWidth="1" />
  <circle cx="36" cy="56" r="4.5" fill="#0F4A8A" stroke="#85B7EB" strokeWidth="1" />

  <!-- right goal node -->
  <circle cx="56" cy="36" r="7" fill="#042C53" stroke="#B5D4F4" strokeWidth="1.5" />
  <circle cx="56" cy="36" r="3.5" fill="#85B7EB" />

  <!-- left → center edges -->
  <line x1="22" y1="22" x2="31.5" y2="16" stroke="#378ADD" strokeWidth="0.8" opacity="0.5" />
  <line x1="22" y1="22" x2="31.5" y2="36" stroke="#378ADD" strokeWidth="0.8" opacity="0.5" />
  <line x1="22" y1="36" x2="31.5" y2="36" stroke="#378ADD" strokeWidth="0.8" opacity="0.5" />
  <line x1="22" y1="36" x2="31.5" y2="56" stroke="#378ADD" strokeWidth="0.8" opacity="0.5" />
  <line x1="22" y1="50" x2="31.5" y2="56" stroke="#378ADD" strokeWidth="0.8" opacity="0.5" />
  <line x1="22" y1="50" x2="31.5" y2="36" stroke="#378ADD" strokeWidth="0.8" opacity="0.3" />

  <!-- center → right edges -->
  <line x1="40.5" y1="16" x2="49" y2="36" stroke="#85B7EB" strokeWidth="1.2" opacity="0.8" />
  <line x1="40.5" y1="36" x2="49" y2="36" stroke="#B5D4F4" strokeWidth="1.5" opacity="1" />
  <line x1="40.5" y1="56" x2="49" y2="36" stroke="#85B7EB" strokeWidth="1.2" opacity="0.8" />
</svg>
